<svg xmlns="http://www.w3.org/2000/svg" width="622.817" height="904.645" viewBox="0 0 622.817 904.645">
  <g id="pattern-light" opacity="0.8">
    <g id="Group_790">
      <g id="Group_784" transform="translate(320.552)">
        <path id="Rectangle_242" d="M0,75.3Q0,44.108,22.054,22.054T75.3,0q31.189,0,53.243,22.054T150.595,75.3q0,31.189-22.054,53.243T75.3,150.595q-31.189,0-53.243-22.054T0,75.3Z" transform="translate(1.076)" fill="#5bd2ff"/>
        <path id="Rectangle_256" d="M0,75.3Q0,44.108,22.054,22.054T75.3,0q31.189,0,53.243,22.054T150.595,75.3q0,31.189-22.054,53.243T75.3,150.595q-31.189,0-53.243-22.054T0,75.3Z" transform="translate(1.076 452.86)" fill="#5bd2ff"/>
        <path id="Rectangle_243" d="M75.3,0h75.3V150.595H0V75.3A75.3,75.3,0,0,1,75.3,0Z" transform="translate(151.671)" fill="#00aeef"/>
        <path id="Rectangle_257" d="M75.3,0h75.3V150.595H0V75.3A75.3,75.3,0,0,1,75.3,0Z" transform="translate(151.671 452.86)" fill="#00aeef"/>
        <path id="Rectangle_250" d="M75.3,0h0a75.3,75.3,0,0,1,75.3,75.3v75.3H0V75.3A75.3,75.3,0,0,1,75.3,0Z" transform="translate(150.595 301.19)" fill="#ceeaf7"/>
        <path id="Rectangle_252" d="M75.3,0h0a75.3,75.3,0,0,1,75.3,75.3v75.3H0V75.3A75.3,75.3,0,0,1,75.3,0Z" transform="translate(150.595 754.05)" fill="#ceeaf7"/>
        <path id="Rectangle_251" d="M0,0H75.3a75.3,75.3,0,0,1,75.3,75.3v75.3H75.3A75.3,75.3,0,0,1,0,75.3V0Z" transform="translate(0 301.19)" fill="#00aeef"/>
        <path id="Rectangle_253" d="M0,0H75.3a75.3,75.3,0,0,1,75.3,75.3v75.3H75.3A75.3,75.3,0,0,1,0,75.3V0Z" transform="translate(0 754.05)" fill="#00aeef"/>
        <path id="Rectangle_244" d="M0,0H150.595V150.595H75.3A75.3,75.3,0,0,1,0,75.3V0Z" transform="translate(151.671 150.595)" fill="#5bd2ff"/>
        <path id="Rectangle_254" d="M0,0H150.595V150.595H75.3A75.3,75.3,0,0,1,0,75.3V0Z" transform="translate(151.671 603.455)" fill="#5bd2ff"/>
        <path id="Rectangle_245" d="M0,0H150.595V75.3a75.3,75.3,0,0,1-75.3,75.3H0V0Z" transform="translate(1.076 150.595)" fill="#ceeaf7"/>
        <path id="Rectangle_255" d="M0,0H150.595V75.3a75.3,75.3,0,0,1-75.3,75.3H0V0Z" transform="translate(1.076 603.455)" fill="#ceeaf7"/>
      </g>
      <g id="Group_785">
        <path id="Rectangle_242-2" d="M0,75.3Q0,44.108,22.054,22.054T75.3,0q31.189,0,53.243,22.054T150.595,75.3q0,31.189-22.054,53.243T75.3,150.595q-31.189,0-53.243-22.054T0,75.3Z" transform="translate(150.595)" fill="#5bd2ff"/>
        <path id="Rectangle_256-2" d="M0,75.3Q0,44.108,22.054,22.054T75.3,0q31.189,0,53.243,22.054T150.595,75.3q0,31.189-22.054,53.243T75.3,150.595q-31.189,0-53.243-22.054T0,75.3Z" transform="translate(150.595 452.86)" fill="#5bd2ff"/>
        <path id="Rectangle_243-2" d="M0,0H75.3a75.3,75.3,0,0,1,75.3,75.3v75.3H0V0Z" fill="#00aeef"/>
        <path id="Rectangle_257-2" d="M0,0H75.3a75.3,75.3,0,0,1,75.3,75.3v75.3H0V0Z" transform="translate(0 452.86)" fill="#00aeef"/>
        <path id="Rectangle_250-2" d="M75.3,0h0a75.3,75.3,0,0,1,75.3,75.3v75.3H0V75.3A75.3,75.3,0,0,1,75.3,0Z" transform="translate(1.076 301.19)" fill="#ceeaf7"/>
        <path id="Rectangle_252-2" d="M75.3,0h0a75.3,75.3,0,0,1,75.3,75.3v75.3H0V75.3A75.3,75.3,0,0,1,75.3,0Z" transform="translate(1.076 754.05)" fill="#ceeaf7"/>
        <path id="Rectangle_251-2" d="M75.3,0h75.3V75.3a75.3,75.3,0,0,1-75.3,75.3H0V75.3A75.3,75.3,0,0,1,75.3,0Z" transform="translate(151.671 301.19)" fill="#00aeef"/>
        <path id="Rectangle_253-2" d="M75.3,0h75.3V75.3a75.3,75.3,0,0,1-75.3,75.3H0V75.3A75.3,75.3,0,0,1,75.3,0Z" transform="translate(151.671 754.05)" fill="#00aeef"/>
        <path id="Rectangle_244-2" d="M0,0H150.595V75.3a75.3,75.3,0,0,1-75.3,75.3H0V0Z" transform="translate(0 150.595)" fill="#5bd2ff"/>
        <path id="Rectangle_254-2" d="M0,0H150.595V75.3a75.3,75.3,0,0,1-75.3,75.3H0V0Z" transform="translate(0 603.455)" fill="#5bd2ff"/>
        <path id="Rectangle_245-2" d="M0,0H150.595V150.595H75.3A75.3,75.3,0,0,1,0,75.3V0Z" transform="translate(150.595 150.595)" fill="#ceeaf7"/>
        <path id="Rectangle_255-2" d="M0,0H150.595V150.595H75.3A75.3,75.3,0,0,1,0,75.3V0Z" transform="translate(150.595 603.455)" fill="#ceeaf7"/>
      </g>
    </g>
  </g>
</svg>
