<svg xmlns="http://www.w3.org/2000/svg" width="15.002" height="14.997" viewBox="0 0 15.002 14.997">
  <g id="cancel" transform="translate(0.002 -0.002)">
    <path id="Shape" d="M7.5,15A7.5,7.5,0,1,1,15,7.5,7.51,7.51,0,0,1,7.5,15Zm0-6.613h0c.018.017,1.961,1.957,2.057,2.056a.624.624,0,1,0,.883-.883c-.037-.038-.408-.412-1.971-1.974L8.383,7.5c.01-.011,1.965-1.959,2.057-2.057A.623.623,0,0,0,10,4.376a.63.63,0,0,0-.443.182c-.076.08-1.436,1.437-2.016,2.017l-.041.04-.008-.008c-.328-.327-1.961-1.961-2.051-2.05a.624.624,0,0,0-.883.883L5.928,6.807l.689.691c-.02.02-1.945,1.95-2.059,2.062a.631.631,0,0,0,0,.883A.619.619,0,0,0,5,10.625a.625.625,0,0,0,.441-.182c.049-.05.605-.605,1.127-1.126.469-.468.908-.908.932-.93Z" fill="#e23e47"/>
  </g>
</svg>
