<svg xmlns="http://www.w3.org/2000/svg" width="24.383" height="24.383" viewBox="0 0 24.383 24.383">
  <path id="Icon_awesome-phone-alt" data-name="Icon awesome-phone-alt" d="M23.687,17.23l-5.334-2.286a1.143,1.143,0,0,0-1.333.329l-2.362,2.886A17.652,17.652,0,0,1,6.22,9.721L9.106,7.358a1.14,1.14,0,0,0,.329-1.333L7.148.691A1.151,1.151,0,0,0,5.839.029L.886,1.172A1.143,1.143,0,0,0,0,2.286a22.1,22.1,0,0,0,22.1,22.1,1.143,1.143,0,0,0,1.114-.886l1.143-4.953a1.157,1.157,0,0,0-.667-1.314Z" transform="translate(0 0)" fill="#fff"/>
</svg>
