<svg xmlns="http://www.w3.org/2000/svg" width="15.002" height="19.498" viewBox="0 0 15.002 19.498">
  <g id="file" transform="translate(0.002 -0.002)">
    <path id="Shape" d="M12,19.5H3a3,3,0,0,1-3-3V3A3,3,0,0,1,3,0H9c.8,0,1.566.74,2.844,2.047l.086.088c.178.182.33.335.467.469.1.1.2.2.328.326.049.046.094.093.141.138l.084.084C14.258,4.434,15,5.2,15,6V16.5A3,3,0,0,1,12,19.5ZM8.465,1.5,3,1.5A1.5,1.5,0,0,0,1.5,3V16.5A1.5,1.5,0,0,0,3,18h9a1.5,1.5,0,0,0,1.5-1.5V6.752C13.5,6,12.738,6,12,6H9.748A.752.752,0,0,1,9,5.248V2.931c0-.668,0-1.3-.533-1.436Z" fill="#00aeef"/>
  </g>
</svg>
