<svg xmlns="http://www.w3.org/2000/svg" width="23" height="17.889" viewBox="0 0 23 17.889">
  <path id="id-card" d="M21.083,2.25H1.917A1.917,1.917,0,0,0,0,4.167v.639H23V4.167A1.917,1.917,0,0,0,21.083,2.25ZM0,18.222a1.917,1.917,0,0,0,1.917,1.917H21.083A1.917,1.917,0,0,0,23,18.222V6.083H0ZM14.056,8.958a.32.32,0,0,1,.319-.319h5.75a.32.32,0,0,1,.319.319V9.6a.32.32,0,0,1-.319.319h-5.75a.32.32,0,0,1-.319-.319Zm0,2.556a.32.32,0,0,1,.319-.319h5.75a.32.32,0,0,1,.319.319v.639a.32.32,0,0,1-.319.319h-5.75a.32.32,0,0,1-.319-.319Zm0,2.556a.32.32,0,0,1,.319-.319h5.75a.32.32,0,0,1,.319.319v.639a.32.32,0,0,1-.319.319h-5.75a.32.32,0,0,1-.319-.319ZM7.028,8.639a2.556,2.556,0,1,1-2.556,2.556A2.558,2.558,0,0,1,7.028,8.639ZM2.679,16.793a2.559,2.559,0,0,1,2.432-1.765h.327a4.113,4.113,0,0,0,3.178,0h.327a2.559,2.559,0,0,1,2.432,1.765.629.629,0,0,1-.623.791H3.3A.63.63,0,0,1,2.679,16.793Z" transform="translate(0 -2.25)" fill="#fff"/>
</svg>
