<svg xmlns="http://www.w3.org/2000/svg" width="26.157" height="31" viewBox="0 0 26.157 31">
  <g id="shield-verify" transform="translate(-40 0)">
    <path id="Path_98" data-name="Path 98" d="M65.41,5.02,53.543.093a1.211,1.211,0,0,0-.929,0L40.747,5.02A1.211,1.211,0,0,0,40,6.138v5.99A20.279,20.279,0,0,0,52.621,30.911a1.211,1.211,0,0,0,.915,0A20.279,20.279,0,0,0,66.157,12.128V6.138A1.211,1.211,0,0,0,65.41,5.02Zm-1.675,7.108A17.862,17.862,0,0,1,53.078,28.474,17.862,17.862,0,0,1,42.422,12.128V6.947L53.078,2.522,63.735,6.947ZM51.74,16.21l5.2-5.2a1.211,1.211,0,1,1,1.712,1.713L52.6,18.778a1.211,1.211,0,0,1-1.713,0L47.5,15.394a1.211,1.211,0,1,1,1.713-1.713Z" transform="translate(0 0)" fill="#fff"/>
  </g>
</svg>
