<svg xmlns="http://www.w3.org/2000/svg" width="54.757" height="50.545" viewBox="0 0 54.757 50.545">
  <path id="statusIcon" d="M31.412,15.728V4.5H3.375V55.045H58.132V15.728ZM14.59,49.424H8.982V43.8H14.59Zm0-11.228H8.982v-5.62H14.59Zm0-11.228H8.982v-5.62H14.59Zm0-11.241H8.982v-5.62H14.59ZM25.8,49.424H20.2V43.8H25.8Zm0-11.228H20.2v-5.62H25.8Zm0-11.228H20.2v-5.62H25.8Zm0-11.241H20.2v-5.62H25.8Zm26.72,33.7H31.412V43.8h5.607V38.2H31.412v-5.62h5.607v-5.62H31.412V21.348H52.525ZM47.575,26.969H41.968v5.62h5.607Zm0,11.228H41.968v5.62h5.607Z" transform="translate(-3.375 -4.5)" fill="#444441"/>
</svg>
