<svg xmlns="http://www.w3.org/2000/svg" width="16" height="16" viewBox="0 0 16 16">
  <path id="account" d="M19.658,17.833v.889A1.738,1.738,0,0,1,17.974,20.5H6.184A1.732,1.732,0,0,1,4.5,18.722V6.278A1.732,1.732,0,0,1,6.184,4.5H17.974a1.738,1.738,0,0,1,1.684,1.778v.889H12.079a1.732,1.732,0,0,0-1.684,1.778v7.111a1.732,1.732,0,0,0,1.684,1.778Zm-7.579-1.778c2.105,1.778,8.421,0,8.421,0V8.944H12.079S9.974,14.278,12.079,16.056Zm3.368-2.222A1.335,1.335,0,1,1,16.711,12.5,1.3,1.3,0,0,1,15.447,13.833Z" transform="translate(-4.5 -4.5)" fill="#fff"/>
</svg>
