<svg xmlns="http://www.w3.org/2000/svg" width="13.095" height="16.213" viewBox="0 0 13.095 16.213">
  <path id="copy" d="M14.294,3.375H9.637A1.559,1.559,0,0,0,8.058,4.914v.331H7.766A1.559,1.559,0,0,0,6.187,6.785V18.009a1.592,1.592,0,0,0,1.578,1.578h8.106a1.559,1.559,0,0,0,1.539-1.578v-.292h.331a1.559,1.559,0,0,0,1.539-1.578V8.364Zm0,1.738,3.25,3.25h-3.25Zm1.871,12.9a.315.315,0,0,1-.292.331H7.766a.347.347,0,0,1-.331-.331V6.785a.315.315,0,0,1,.331-.292h.292V16.45a1.106,1.106,0,0,0,1.267,1.267h6.84Zm1.871-1.871a.315.315,0,0,1-.292.331H9.637a.347.347,0,0,1-.331-.331V4.914a.315.315,0,0,1,.331-.292h3.41V9.611h4.989Z" transform="translate(-6.188 -3.375)" fill="#d9d9d9"/>
</svg>
