<svg xmlns="http://www.w3.org/2000/svg" width="37.827" height="37.812" viewBox="0 0 37.827 37.812">
  <g id="dashboard_icon" data-name="dashboard icon" transform="translate(-255.9 -256)">
    <path id="Path_212" data-name="Path 212" d="M550.625,275.94a3.236,3.236,0,0,1-3.53,2.127c-3.567-.074-7.134-.022-10.694-.022a2.75,2.75,0,0,1-3.087-3.094c-.008-5.14.037-10.28-.022-15.42-.022-1.7.5-2.9,2.127-3.53h13.146a3.786,3.786,0,0,1,2.068,2.068Q550.621,267.007,550.625,275.94Zm-14.955-9.01c0,2.629.015,5.266-.007,7.895-.007.62.148.871.82.871,3.663-.03,7.326-.022,11,0,.62,0,.8-.229.8-.827q-.022-7.821,0-15.642c0-.7-.244-.879-.9-.871-3.589.029-7.186.037-10.775-.007-.776-.007-.953.266-.938.982C535.692,261.864,535.67,264.4,535.67,266.93Z" transform="translate(-256.905 0)" fill="#919191"/>
    <path id="Path_213" data-name="Path 213" d="M255.907,471.3a3.236,3.236,0,0,1,3.53-2.127c3.567.074,7.134.022,10.694.022a2.753,2.753,0,0,1,3.087,3.094c.007,5.14-.037,10.28.022,15.42.022,1.7-.51,2.9-2.127,3.53H257.968a3.786,3.786,0,0,1-2.068-2.068Q255.911,480.237,255.907,471.3Zm2.363,8.936c0,2.585.015,5.162-.015,7.747-.007.665.177.908.871.908q5.428-.044,10.849,0c.672.007.9-.192.9-.879q-.033-7.788,0-15.568c0-.657-.17-.908-.871-.9q-5.428.044-10.849,0c-.731-.007-.908.258-.9.945C258.293,475.079,258.271,477.656,258.271,480.241Z" transform="translate(0 -197.433)" fill="#919191"/>
    <path id="Path_214" data-name="Path 214" d="M271.213,256a3.2,3.2,0,0,1,2.127,3.53c-.089,2.009-.015,4.032-.022,6.048a2.734,2.734,0,0,1-3.021,3.013c-3.589.007-7.178-.052-10.768.022a3.236,3.236,0,0,1-3.53-2.127v-8.419A3.786,3.786,0,0,1,258.068,256Zm-6.573,2.363c-1.817,0-3.641.015-5.458-.007-.591-.007-.835.162-.827.8q.044,3.135,0,6.27c-.007.606.177.827.8.82q5.494-.033,10.989,0c.591,0,.835-.162.827-.79q-.044-3.135,0-6.27c.007-.672-.244-.835-.871-.827C268.281,258.385,266.457,258.363,264.641,258.363Z" transform="translate(-0.093 0)" fill="#919191"/>
    <path id="Path_215" data-name="Path 215" d="M535.249,609.792a3.2,3.2,0,0,1-2.127-3.53c.089-2.009.015-4.032.022-6.049a2.727,2.727,0,0,1,3.02-3.013c3.589-.007,7.178.052,10.768-.022a3.236,3.236,0,0,1,3.53,2.127v8.419a3.787,3.787,0,0,1-2.068,2.068Zm6.551-2.363c1.846,0,3.685-.015,5.531.007.569.007.783-.185.783-.768-.022-2.112-.022-4.232,0-6.344.007-.583-.2-.775-.775-.768q-5.528.022-11.063,0c-.569,0-.783.177-.775.761.022,2.112.022,4.232,0,6.344-.007.569.177.783.768.775C538.107,607.414,539.953,607.428,541.8,607.428Z" transform="translate(-256.743 -315.98)" fill="#919191"/>
  </g>
</svg>
