<svg xmlns="http://www.w3.org/2000/svg" width="53.869" height="37.294" viewBox="0 0 53.869 37.294">
  <g id="Icon_ionic-ios-mail" data-name="Icon ionic-ios-mail" transform="translate(-3.375 -7.875)">
    <path id="Path_21279" data-name="Path 21279" d="M56.8,10.393,42.87,24.586a.25.25,0,0,0,0,.363l9.751,10.385a1.68,1.68,0,0,1,0,2.383,1.688,1.688,0,0,1-2.383,0L40.527,27.37a.266.266,0,0,0-.376,0l-2.37,2.409a10.426,10.426,0,0,1-7.433,3.134,10.635,10.635,0,0,1-7.588-3.224L20.481,27.37a.266.266,0,0,0-.376,0L10.394,37.716a1.688,1.688,0,0,1-2.383,0,1.68,1.68,0,0,1,0-2.383l9.751-10.385a.276.276,0,0,0,0-.363L3.815,10.393a.255.255,0,0,0-.44.181v28.4a4.156,4.156,0,0,0,4.144,4.144H53.1a4.156,4.156,0,0,0,4.144-4.144v-28.4A.259.259,0,0,0,56.8,10.393Z" transform="translate(0 2.053)" fill="#a7a7a7"/>
    <path id="Path_21280" data-name="Path 21280" d="M29.593,31.585a7.04,7.04,0,0,0,5.063-2.124L54.974,8.781a4.07,4.07,0,0,0-2.564-.906H6.79a4.043,4.043,0,0,0-2.564.906l20.317,20.68A7.041,7.041,0,0,0,29.593,31.585Z" transform="translate(0.716 0)" fill="#a7a7a7"/>
  </g>
</svg>
