<svg xmlns="http://www.w3.org/2000/svg" width="21.04" height="17.948" viewBox="0 0 21.04 17.948">
  <g id="loop-arrow" transform="translate(-343.996 -369.989)">
    <path id="Path_219" data-name="Path 219" d="M351.5,372.574c0-.7-.025-1.339.013-1.974a.814.814,0,0,1,.34-.585.676.676,0,0,1,.61.163c1.176,1.144,2.333,2.314,3.515,3.5a2.7,2.7,0,0,1-.239.283c-1.05,1.056-2.094,2.113-3.163,3.144a1,1,0,0,1-.717.283c-.352-.044-.371-.4-.365-.717.006-.591,0-1.188,0-1.811a4.486,4.486,0,0,0-4.257,1.415,3.915,3.915,0,0,0-.654,4.3,3.873,3.873,0,0,0,3.615,2.484,1.181,1.181,0,0,1,1.176,1.641,1.168,1.168,0,0,1-1.163.641,6.39,6.39,0,0,1,.283-12.777C350.818,372.574,351.126,372.574,351.5,372.574Z" transform="translate(0 0)" fill="#d99fff"/>
    <path id="Path_220" data-name="Path 220" d="M492,421.82a15.236,15.236,0,0,0,2.477-.358,4.065,4.065,0,0,0,2.748-4.408,4.139,4.139,0,0,0-3.955-3.6,1.166,1.166,0,0,1-1.264-1.012,1.141,1.141,0,0,1,1.207-1.245,6.386,6.386,0,0,1-.05,12.771c-.371.006-.742,0-1.163,0,0,.711.025,1.377-.013,2.044a.732.732,0,0,1-.321.509.609.609,0,0,1-.547-.082c-1.207-1.176-2.4-2.377-3.622-3.615.547-.547,1.075-1.069,1.61-1.6.629-.629,1.251-1.276,1.905-1.88a.754.754,0,0,1,.648-.182.774.774,0,0,1,.333.585C492.027,420.387,492,421.022,492,421.82Z" transform="translate(-134.481 -38.613)" fill="#d99fff"/>
  </g>
</svg>
