<svg id="notifications" xmlns="http://www.w3.org/2000/svg" width="14.483" height="18.115" viewBox="0 0 14.483 18.115">
  <path id="Path_31971" data-name="Path 31971" d="M16.786,30.736a2.134,2.134,0,0,0,2.178-2.4H14.6A2.135,2.135,0,0,0,16.786,30.736Z" transform="translate(-9.554 -12.621)" fill="#fff"/>
  <path id="Path_31972" data-name="Path 31972" d="M21.061,17.346c-.7-.919-2.069-1.458-2.069-5.573,0-4.224-1.865-5.922-3.6-6.33-.163-.041-.281-.1-.281-.267V5.044a1.1,1.1,0,1,0-2.209,0v.131c0,.168-.118.226-.281.267-1.743.412-3.6,2.105-3.6,6.33,0,4.116-1.372,4.65-2.069,5.573a.9.9,0,0,0,.72,1.44H20.346A.9.9,0,0,0,21.061,17.346Z" transform="translate(-6.761 -3.93)" fill="#fff"/>
</svg>
