<svg id="qr-code" xmlns="http://www.w3.org/2000/svg" width="14.258" height="14.255" viewBox="0 0 14.258 14.255">
  <path id="Path_196" data-name="Path 196" d="M415.615,418.972c0-.328-.005-.656,0-.989a.88.88,0,0,1,.916-.925q1.006-.015,2.012,0a.846.846,0,0,1,.9.862c.024.705.024,1.415,0,2.12a.822.822,0,0,1-.872.849q-1.043.037-2.086,0a.855.855,0,0,1-.872-.925C415.605,419.633,415.615,419.3,415.615,418.972Zm2.723.813v-1.6h-1.606v1.6Z" transform="translate(-413.165 -414.607)" fill="#fff"/>
  <path id="Path_197" data-name="Path 197" d="M532.111,419c0,.328.01.66,0,.989a.845.845,0,0,1-.857.9c-.705.025-1.415.025-2.12,0a.827.827,0,0,1-.852-.867c-.019-.7-.024-1.391,0-2.086a.859.859,0,0,1,.925-.877c.656-.01,1.317-.01,1.974,0a.882.882,0,0,1,.931.95C532.115,418.335,532.111,418.664,532.111,419Zm-2.723.784h1.6v-1.606h-1.6Z" transform="translate(-520.302 -414.607)" fill="#fff"/>
  <path id="Path_198" data-name="Path 198" d="M530.217,533.668c-.343,0-.68.01-1.023,0a.843.843,0,0,1-.887-.837c-.029-.72-.024-1.44,0-2.155a.815.815,0,0,1,.849-.832c.705-.025,1.415-.025,2.12,0a.846.846,0,0,1,.862.9q.015,1.006,0,2.012a.877.877,0,0,1-.926.916C530.873,533.673,530.545,533.668,530.217,533.668Zm-.808-1.117h1.6v-1.606h-1.6Z" transform="translate(-520.324 -521.86)" fill="#fff"/>
  <path id="Path_199" data-name="Path 199" d="M417.458,533.668c-.318,0-.632.005-.95,0a.884.884,0,0,1-.95-.93c-.01-.656-.01-1.317,0-1.974a.852.852,0,0,1,.877-.921q1.043-.037,2.086,0a.838.838,0,0,1,.872.891c.019.681.019,1.366,0,2.047a.87.87,0,0,1-.945.9C418.119,533.673,417.786,533.668,417.458,533.668Zm.813-1.107v-1.616h-1.592v1.616Z" transform="translate(-413.108 -521.859)" fill="#fff"/>
  <path id="Path_200" data-name="Path 200" d="M365.786,369.672c0-.367-.019-.73.005-1.1A1.469,1.469,0,0,1,367.2,367.2c.715-.025,1.435-.015,2.155-.005a.542.542,0,1,1,.03,1.082c-.632.019-1.263.01-1.9.01-.494.005-.607.113-.607.6-.005.607.005,1.219-.005,1.827-.01.416-.245.656-.6.622a.5.5,0,0,1-.49-.534c-.01-.377-.005-.754-.005-1.132Z" transform="translate(-365.771 -367.183)" fill="#fff"/>
  <path id="Path_201" data-name="Path 201" d="M573.5,367.316c.328,0,.656-.01.984,0a1.487,1.487,0,0,1,1.489,1.449c.025.705.015,1.41.005,2.116a.527.527,0,0,1-.524.583.537.537,0,0,1-.563-.583c-.015-.622-.005-1.239-.01-1.861,0-.49-.118-.6-.6-.607-.607-.005-1.219.01-1.827-.005-.431-.01-.676-.269-.617-.632a.5.5,0,0,1,.529-.455C572.744,367.306,573.121,367.316,573.5,367.316Z" transform="translate(-561.729 -367.304)" fill="#fff"/>
  <path id="Path_202" data-name="Path 202" d="M368.159,577.431c-.367,0-.73.02-1.1,0a1.455,1.455,0,0,1-1.376-1.366c-.034-.739-.019-1.484-.01-2.228a.539.539,0,1,1,1.077-.005c.019.632.005,1.263.01,1.9.005.5.113.607.637.612.6,0,1.195-.01,1.787.005.431.01.676.264.622.627a.5.5,0,0,1-.524.46c-.377.01-.754,0-1.132,0C368.159,577.434,368.159,577.431,368.159,577.431Z" transform="translate(-365.664 -563.188)" fill="#fff"/>
  <path id="Path_203" data-name="Path 203" d="M573.526,577.544c-.343,0-.681.005-1.024,0-.382-.01-.6-.211-.6-.539a.542.542,0,0,1,.6-.553c.6-.015,1.195,0,1.787,0s.666-.094.671-.692c0-.558-.005-1.122,0-1.68,0-.44.2-.676.539-.686.357-.01.553.23.558.7.005.622.01,1.244,0,1.861a1.515,1.515,0,0,1-1.616,1.592C574.132,577.544,573.829,577.544,573.526,577.544Z" transform="translate(-561.801 -563.292)" fill="#fff"/>
</svg>
