<svg xmlns="http://www.w3.org/2000/svg" width="62.359" height="48.279" viewBox="0 0 62.359 48.279">
  <g id="receive" transform="translate(0 17.319) rotate(-45)">
    <g id="Layer_1" data-name="Layer 1" transform="translate(0 0)">
      <path id="Path_31967" data-name="Path 31967" d="M187.014,2.71a6.322,6.322,0,0,1,1.691.778A4.044,4.044,0,0,1,190.2,5.633q2.37,8.259,4.729,16.523a1.178,1.178,0,0,1,.021.17c.053.093,0,.166-.052.23a3.17,3.17,0,0,1-.3.313L171.354,46.115a1.236,1.236,0,0,1-.46.378c-.376-.056-.317-.4-.415-.635V45.08c.565-2.4,1.365-4.734,2.062-7.1,1.161-3.931,2.351-7.852,3.531-11.784q1.6-5.336,3.2-10.67c.911-3.035,1.828-6.069,2.727-9.108.078-.262.162-.521.251-.778a3.878,3.878,0,0,1,3.383-2.931Z" transform="translate(-170.479 -2.71)" fill="#a7a7a7"/>
      <path id="Path_31968" data-name="Path 31968" d="M0,24.123c.125-.136.246-.277.377-.409Q12.023,12.061,23.672.416c.13-.131.245-.277.368-.416,5.449,1.558,10.9,3.127,16.35,4.666a4.177,4.177,0,0,1,3.19,3.141.522.522,0,0,0,.087.137V9.408a4.1,4.1,0,0,1-3.2,3.363q-10.985,3.3-21.977,6.594C13.461,20.874,8.436,22.4,3.4,23.889a16.591,16.591,0,0,1-2.277.59h-.6C.359,24.342.015,24.473,0,24.123Z" transform="translate(0.428 19.615)" fill="#a7a7a7"/>
    </g>
  </g>
</svg>
