<svg xmlns="http://www.w3.org/2000/svg" width="31" height="31" viewBox="0 0 31 31">
  <g id="scanner" transform="translate(-309.463 -158)">
    <rect id="Rectangle" width="31" height="31" rx="4" transform="translate(309.463 158)" fill="#012251"/>
    <path id="scanner-2" data-name="scanner" d="M-.673,1.48a.673.673,0,0,1-.673.673A.673.673,0,0,1-2.02,1.48V-1.347a.673.673,0,0,1,.673-.673H1.48a.673.673,0,0,1,.673.673.673.673,0,0,1-.673.673H-.673ZM8.616,15.93a.673.673,0,0,1,0-1.346H9.2a.673.673,0,1,1,0,1.346Zm.494-8.975a.673.673,0,1,1-1.346,0V6.372a.673.673,0,1,1,1.346,0Zm4.128,7.539a.673.673,0,1,1,0-1.346h.583a.673.673,0,0,1,0,1.346ZM-.651,10.141H2.481a.666.666,0,0,0-.013.135V12.3a.673.673,0,0,0,1.346,0V10.276a.666.666,0,0,0-.013-.135H9.738V10.9H6.192a.673.673,0,1,0,0,1.346h4.218a.673.673,0,0,0,.673-.673V10.141H13.6v1.974a.673.673,0,1,0,1.346,0V10.141h4.645a.673.673,0,0,0,0-1.346H16.514v-1.3h.673a.673.673,0,0,0,0-1.346H13.821a.673.673,0,1,0,0,1.346h1.346v1.3H11.084V7.045a.673.673,0,1,0-1.346,0v1.75H-.651a.673.673,0,0,0-.673.673.673.673,0,0,0,.673.673ZM10.994,1.884a.673.673,0,0,1,1.346,0V5.429a.673.673,0,0,1-1.346,0ZM7,2.153H8.526V1.884a.673.673,0,0,1,1.346,0V4.128a.673.673,0,0,1-1.346,0V3.5H7v.314a.673.673,0,0,1-1.346,0V1.884A.673.673,0,0,1,7,1.884Zm-5.385,5.3a.673.673,0,0,1,0-1.346H6.6a.673.673,0,0,1,0,1.346Zm14.674,8.93v.673a.673.673,0,1,0,1.346,0V13.013a.673.673,0,1,0-1.346,0v2.019H14.046a.673.673,0,1,0,0,1.346ZM9.423,17.725h2.019a.673.673,0,0,0,.673-.673V13.6a.673.673,0,0,0-1.346,0v2.782H9.423a.673.673,0,0,0,0,1.346ZM5.7,13.641a.673.673,0,0,1,1.346,0v1.974a.673.673,0,1,1-1.346,0Zm-4.084-.09H4.442a.673.673,0,0,1,.673.673v2.827a.673.673,0,0,1-.673.673H1.615a.673.673,0,0,1-.673-.673V14.225a.673.673,0,0,1,.673-.673ZM3.769,14.9H2.288v1.481H3.769ZM14.494,1.211h2.827a.673.673,0,0,1,.673.673V4.711a.673.673,0,0,1-.673.673H14.494a.673.673,0,0,1-.673-.673V1.884A.673.673,0,0,1,14.494,1.211Zm2.154,1.346H15.167V4.038h1.481ZM1.615,1.211a.673.673,0,0,0-.673.673V4.711a.673.673,0,0,0,.673.673H4.442a.673.673,0,0,0,.673-.673V1.884a.673.673,0,0,0-.673-.673ZM3.769,2.557V4.038H2.288V2.557Zm15.841,14.9a.673.673,0,1,1,1.346,0v2.827a.673.673,0,0,1-.673.673H17.456a.673.673,0,0,1,0-1.346H19.61Zm-21.63,0v2.827a.673.673,0,0,0,.673.673H1.48a.673.673,0,1,0,0-1.346H-.673V17.456a.673.673,0,0,0-.673-.673.673.673,0,0,0-.673.673ZM20.956,1.48V-1.347a.673.673,0,0,0-.673-.673H17.456a.673.673,0,0,0-.673.673.673.673,0,0,0,.673.673H19.61V1.48a.673.673,0,1,0,1.346,0Zm0,0" transform="translate(315.31 164.31)" fill="#fff" fill-rule="evenodd"/>
  </g>
</svg>
