<svg id="send" xmlns="http://www.w3.org/2000/svg" width="40.826" height="40.826" viewBox="0 0 40.826 40.826">
  <g id="Layer_1" data-name="Layer 1" transform="translate(0)">
    <path id="Path_31967" data-name="Path 31967" d="M177.847,43.248a5.853,5.853,0,0,1-1.566-.721,3.744,3.744,0,0,1-1.384-1.985q-2.194-7.647-4.379-15.3a1.1,1.1,0,0,1-.019-.158c-.049-.086,0-.153.048-.213a2.939,2.939,0,0,1,.274-.29L192.347,3.06a1.145,1.145,0,0,1,.426-.35c.348.052.294.367.384.588v.721c-.523,2.223-1.264,4.383-1.909,6.569-1.075,3.64-2.177,7.27-3.269,10.911q-1.485,4.941-2.966,9.879c-.843,2.81-1.693,5.619-2.525,8.432-.072.243-.15.482-.232.721a3.59,3.59,0,0,1-3.132,2.714Z" transform="translate(-152.331 -2.422)" fill="#a7a7a7"/>
    <path id="Path_31968" data-name="Path 31968" d="M40.43.33c-.116.126-.228.257-.349.379Q29.3,11.5,18.513,22.279c-.12.121-.227.257-.341.385-5.045-1.442-10.088-2.9-15.138-4.32A3.868,3.868,0,0,1,.081,15.436.483.483,0,0,0,0,15.31V13.954A3.8,3.8,0,0,1,2.966,10.84q10.171-3.06,20.348-6.105c4.653-1.4,9.305-2.806,13.967-4.189A15.361,15.361,0,0,1,39.389,0h.558C40.1.127,40.416.005,40.43.33Z" transform="translate(0)" fill="#a7a7a7"/>
  </g>
</svg>
