<svg xmlns="http://www.w3.org/2000/svg" width="40.639" height="41.938" viewBox="0 0 40.639 41.938">
  <g id="setting" transform="translate(-325.761 -321.125)">
    <path id="Path_208" data-name="Path 208" d="M341.988,363.063a3.628,3.628,0,0,1-2.694-3.417c-.044-.482-.153-.964-.241-1.446a2.445,2.445,0,0,0-3.363-1.972c-.668.23-1.325.515-1.994.745a3.249,3.249,0,0,1-4.075-1.49c-1.139-1.928-2.256-3.856-3.352-5.805a3.236,3.236,0,0,1,.8-4.327c.537-.46,1.106-.887,1.632-1.358a2.432,2.432,0,0,0-.011-3.79c-.548-.493-1.139-.931-1.7-1.413a3.2,3.2,0,0,1-.756-4.206q1.676-2.99,3.439-5.948a3.209,3.209,0,0,1,3.954-1.424c.7.241,1.369.537,2.07.767a2.445,2.445,0,0,0,3.352-1.994c.12-.646.219-1.293.329-1.939a3.265,3.265,0,0,1,3.385-2.914c2.213-.011,4.414-.011,6.627,0a3.265,3.265,0,0,1,3.385,2.914c.11.668.208,1.347.34,2.016a2.422,2.422,0,0,0,3.253,1.928c.723-.23,1.424-.548,2.147-.789a3.223,3.223,0,0,1,3.965,1.424c1.172,1.972,2.311,3.954,3.439,5.948a3.214,3.214,0,0,1-.756,4.206c-.559.482-1.15.92-1.7,1.413a2.425,2.425,0,0,0-.011,3.79c.548.493,1.139.931,1.7,1.413a3.2,3.2,0,0,1,.778,4.2q-1.676,2.99-3.428,5.948a3.2,3.2,0,0,1-3.954,1.435c-.7-.23-1.369-.526-2.07-.767a2.445,2.445,0,0,0-3.363,1.961,13.243,13.243,0,0,0-.241,1.446,3.639,3.639,0,0,1-2.695,3.417C347.442,363.063,344.715,363.063,341.988,363.063Zm-9.5-9.135c.7-.263,1.314-.493,1.928-.712a5.717,5.717,0,0,1,7.9,4.666c.1.635.23,1.26.34,1.884h6.9c.241-2.465.712-4.82,3.111-6.211s4.677-.613,6.988.405c1.172-2.026,2.311-4,3.45-5.981-.241-.2-.394-.351-.57-.471-4.4-2.936-4.283-7.963-.033-10.756a5.333,5.333,0,0,0,.591-.526c-1.161-2-2.289-3.954-3.429-5.915-.723.263-1.358.5-1.993.734a5.73,5.73,0,0,1-7.832-4.688c-.1-.635-.23-1.26-.34-1.884h-6.879c-.285,2.454-.734,4.82-3.122,6.211s-4.677.613-6.977-.405c-1.172,2.037-2.311,4-3.472,6.013,2.048,1.479,3.823,3.056,3.834,5.805.011,2.793-1.818,4.359-3.834,5.86C330.2,349.963,331.33,351.912,332.491,353.928Z" transform="translate(0 0)" fill="#919191"/>
    <path id="Path_210" data-name="Path 210" d="M445.9,439.2a8.051,8.051,0,1,1-8.106,8A8.022,8.022,0,0,1,445.9,439.2Zm-.077,12.837a4.781,4.781,0,1,0-4.765-4.776A4.743,4.743,0,0,0,445.827,452.036Z" transform="translate(-99.765 -105.14)" fill="#919191"/>
  </g>
</svg>
