<svg xmlns="http://www.w3.org/2000/svg" width="29.33" height="29.341" viewBox="0 0 29.33 29.341">
  <g id="Staking" transform="translate(791.736 -348)">
    <path id="Path_21307" data-name="Path 21307" d="M-782.635,348c.595.076,1.192.133,1.784.23a10.379,10.379,0,0,1,3.356,1.093,4.583,4.583,0,0,1,1.46,1.18,2.229,2.229,0,0,1,.519,1.394q0,2.077,0,4.154a.622.622,0,0,1-.244.567.622.622,0,0,1-.612.078.652.652,0,0,1-.4-.667c0-.459.007-.917,0-1.375-.007-.307-.222-.436-.486-.284a11.635,11.635,0,0,1-5.119,1.391,15.036,15.036,0,0,1-6.127-.717,13.061,13.061,0,0,1-1.4-.636c-.372-.184-.57-.084-.573.325,0,.382.022.766-.006,1.145a1.035,1.035,0,0,0,.495.967,5.749,5.749,0,0,0,1.867.836,17.9,17.9,0,0,0,6.953.476,2.914,2.914,0,0,1,.342-.025.6.6,0,0,1,.622.545.587.587,0,0,1-.483.673,10.679,10.679,0,0,1-1.193.138,18.622,18.622,0,0,1-6.5-.583,14.724,14.724,0,0,1-1.544-.595c-.382-.161-.561-.06-.563.356a8.98,8.98,0,0,1-.006.916,1.039,1.039,0,0,0,.526,1.006,6.368,6.368,0,0,0,1.977.876,16.334,16.334,0,0,0,4.128.566c.134,0,.267,0,.4.007a.616.616,0,0,1,.436.188.617.617,0,0,1,.173.442.6.6,0,0,1-.173.443.6.6,0,0,1-.441.179,15.165,15.165,0,0,1-6.468-1.238c-.356-.171-.551-.055-.554.339,0,.356.01.711,0,1.06a.822.822,0,0,0,.276.661,4.652,4.652,0,0,0,1.774.957,15.02,15.02,0,0,0,3.823.683c.438.032.688.273.676.652a.634.634,0,0,1-.235.475.635.635,0,0,1-.513.131,13.956,13.956,0,0,1-5.131-1.164c-.061-.027-.121-.057-.183-.081-.286-.109-.472.01-.477.317a10.45,10.45,0,0,0,.011,1.23.982.982,0,0,0,.267.54,4.176,4.176,0,0,0,1.712.944,14.3,14.3,0,0,0,3.734.688,1.95,1.95,0,0,1,.229.014.622.622,0,0,1,.438.216.62.62,0,0,1,.147.466.609.609,0,0,1-.211.424.61.61,0,0,1-.452.145,12.23,12.23,0,0,1-3.3-.488c-.666-.195-1.316-.449-1.965-.7-.45-.173-.608-.089-.609.385q.019.429-.005.859a1.056,1.056,0,0,0,.541,1.028,6.459,6.459,0,0,0,1.956.863,16.219,16.219,0,0,0,3.957.565c.178.006.364,0,.544.009a.631.631,0,0,1,.45.189.632.632,0,0,1,.181.454.607.607,0,0,1-.2.449.607.607,0,0,1-.464.158c-1.156-.089-2.32-.173-3.472-.325a9.159,9.159,0,0,1-2.861-.872,6.9,6.9,0,0,1-.789-.462,2.568,2.568,0,0,1-1.1-1.485V351.556a3.683,3.683,0,0,1,1.945-2.208,10.308,10.308,0,0,1,3.406-1.115c.581-.093,1.169-.155,1.754-.23Zm-.986,6.58c.722-.056,1.448-.089,2.166-.178a13.006,13.006,0,0,0,1.651-.333,6.037,6.037,0,0,0,2.461-1.163,1.139,1.139,0,0,0,.577-.983,1.139,1.139,0,0,0-.563-.99,6.254,6.254,0,0,0-1.473-.857,11.344,11.344,0,0,0-3.761-.782,14.5,14.5,0,0,0-5.424.6,5,5,0,0,0-2.062,1.133,1.091,1.091,0,0,0-.437.873,1.091,1.091,0,0,0,.437.873,4.452,4.452,0,0,0,1.578.957,13.962,13.962,0,0,0,4.85.849Z" transform="translate(0 0)" fill="#b9b9b9"/>
    <path id="Path_21308" data-name="Path 21308" d="M-659.929,490.426c-.534-.1-1.067-.167-1.6-.293a9.976,9.976,0,0,1-7.526-8.432,9.973,9.973,0,0,1,7.478-10.954,9.988,9.988,0,0,1,7.847,1.3,9.987,9.987,0,0,1,4.407,6.622c.057.326.109.654.162.978v1.49c-.055.356-.107.711-.166,1.067a9.986,9.986,0,0,1-7.491,7.928c-.533.122-1.084.192-1.626.285Zm-7.953-10.014a8.748,8.748,0,0,0,8.619,8.754,8.732,8.732,0,0,0,6.225-2.492,8.733,8.733,0,0,0,2.623-6.171,8.746,8.746,0,0,0-2.541-6.22,8.745,8.745,0,0,0-6.2-2.582A8.756,8.756,0,0,0-667.882,480.411Z" transform="translate(-113.249 -113.085)" fill="#b9b9b9"/>
    <path id="Path_21309" data-name="Path 21309" d="M1413.183,236.023v.792l-.668.676a.741.741,0,0,0,0,1.045l.666.667v.792l-1.582,1.584v-2.257a.521.521,0,0,0-.523-.523h-4.5a.523.523,0,0,0-.523.523v2.257l-1.582-1.584v-.789l.666-.667a.741.741,0,0,0,0-1.045l-.668-.676v-.792l1.581-1.584v2.246a.523.523,0,0,0,.523.523h4.5a.523.523,0,0,0,.523-.523v-2.246Z" transform="translate(-2181.214 129.339)" fill="#b9b9b9"/>
  </g>
</svg>
