<svg id="Group_75" data-name="Group 75" xmlns="http://www.w3.org/2000/svg" width="52.452" height="52.452" viewBox="0 0 52.452 52.452">
  <path id="Icon_awesome-check-circle" data-name="Icon awesome-check-circle" d="M53.015,26.789A26.226,26.226,0,1,1,26.789.563,26.226,26.226,0,0,1,53.015,26.789ZM23.755,40.675,43.213,21.217a1.692,1.692,0,0,0,0-2.393L40.82,16.431a1.692,1.692,0,0,0-2.393,0L22.559,32.3,15.15,24.891a1.692,1.692,0,0,0-2.393,0l-2.393,2.393a1.692,1.692,0,0,0,0,2.393l11,11A1.692,1.692,0,0,0,23.755,40.675Z" transform="translate(-0.563 -0.562)" fill="#00b718"/>
</svg>
