<svg xmlns="http://www.w3.org/2000/svg" width="50.389" height="49.163" viewBox="0 0 50.389 49.163">
  <g id="swap" transform="translate(0 1.982)">
    <g id="Layer_1" data-name="Layer 1" transform="translate(0 -1.982)">
      <path id="Path_31969" data-name="Path 31969" d="M0,114.718c.142-.053.142-.2.181-.308a1.888,1.888,0,0,1,1.624-1.282,1.891,1.891,0,0,1,1.965.911,20.289,20.289,0,0,0,3.079,3.943,19.243,19.243,0,0,0,11.675,5.513c1.354.142,1.354.131,1.354-1.244v-1.335a2.037,2.037,0,0,1,1.171-2.045,2.015,2.015,0,0,1,2.357.428q2.817,2.494,5.644,4.977c1.614,1.425,3.227,2.85,4.853,4.258a2.041,2.041,0,0,1,.068,3.344q-5.331,4.727-10.69,9.415a1.918,1.918,0,0,1-2.179.362,1.974,1.974,0,0,1-1.217-1.907c-.017-.8-.019-1.6,0-2.4.01-.353-.077-.494-.463-.51A20.421,20.421,0,0,1,.341,120.151,7.9,7.9,0,0,0,0,118.35v-1.069a5.453,5.453,0,0,0,0-1.71Z" transform="translate(0 -92.681)" fill="#a7a7a7"/>
      <path id="Path_31970" data-name="Path 31970" d="M174.326,27.037a6.29,6.29,0,0,1-.427.893,2.009,2.009,0,0,1-3.313-.073,25.846,25.846,0,0,0-2.273-3.091,19.254,19.254,0,0,0-11.579-6.283c-.579-.091-1.167-.12-1.746-.207-.469-.07-.57.125-.55.556.034.712.009,1.425.01,2.137a2.06,2.06,0,0,1-3.548,1.577q-3.725-3.3-7.454-6.573c-1.029-.906-2.051-1.82-3.088-2.707a2,2,0,0,1-.063-3.227Q145.67,5.281,151.074.548A1.9,1.9,0,0,1,153.211.2a1.951,1.951,0,0,1,1.225,1.852c.03.855.024,1.674,0,2.511-.01.352.108.452.452.467a19.7,19.7,0,0,1,13.466,5.985A20.32,20.32,0,0,1,174.213,23.3c.014.114-.037.256.115.325v.855a5.379,5.379,0,0,0,0,1.71Z" transform="translate(-123.94 -0.018)" fill="#a7a7a7"/>
    </g>
  </g>
</svg>
