<?xml version="1.0" standalone="no"?>
<!DOCTYPE svg PUBLIC "-//W3C//DTD SVG 20010904//EN"
 "http://www.w3.org/TR/2001/REC-SVG-20010904/DTD/svg10.dtd">
<svg version="1.0" xmlns="http://www.w3.org/2000/svg"
 width="1024.000000pt" height="1024.000000pt" viewBox="0 0 1024.000000 1024.000000"
 preserveAspectRatio="xMidYMid meet">
<metadata>
Created by potrace 1.14, written by Peter Selinger 2001-2017
</metadata>
<g transform="translate(0.000000,1024.000000) scale(0.100000,-0.100000)"
fill="#000000" stroke="none">
<path d="M4858 10235 c-2 -2 -48 -6 -104 -9 -55 -3 -118 -8 -140 -11 -21 -2
-64 -7 -94 -10 -30 -3 -84 -10 -120 -16 -36 -6 -76 -12 -90 -14 -47 -6 -105
-17 -198 -36 -51 -11 -109 -22 -129 -25 -131 -21 -564 -157 -798 -251 -164
-66 -451 -206 -590 -288 -33 -19 -73 -42 -90 -50 -36 -18 -214 -135 -345 -226
-98 -69 -325 -246 -395 -308 -120 -109 -161 -147 -275 -261 -69 -69 -157 -161
-195 -205 -39 -44 -82 -93 -97 -110 -64 -72 -236 -301 -317 -420 -199 -293
-347 -569 -507 -941 -69 -160 -204 -576 -229 -702 -1 -9 -8 -37 -15 -62 -7
-25 -14 -54 -16 -65 -2 -11 -11 -54 -19 -95 -8 -41 -17 -89 -20 -105 -2 -17
-13 -86 -24 -155 -39 -253 -46 -363 -46 -710 0 -353 11 -533 45 -755 5 -33 11
-77 14 -97 3 -21 9 -54 12 -73 5 -36 61 -305 69 -338 3 -9 7 -25 9 -35 37
-144 113 -394 146 -477 4 -11 14 -36 21 -55 41 -112 148 -359 205 -473 37 -72
74 -145 82 -162 31 -62 158 -274 230 -385 310 -476 746 -939 1212 -1288 233
-175 502 -343 745 -465 139 -70 349 -167 360 -167 3 0 24 -9 48 -19 144 -65
530 -189 722 -232 102 -23 277 -58 315 -64 14 -2 69 -10 123 -19 53 -9 123
-18 155 -21 31 -3 75 -8 97 -10 237 -27 847 -27 1017 0 13 2 52 6 88 10 36 4
74 9 85 11 11 1 40 6 65 9 54 7 197 32 260 45 25 5 56 12 70 14 64 10 390 100
526 145 362 120 794 321 1069 496 184 118 245 159 365 248 256 191 408 324
624 546 144 148 138 141 232 252 505 592 879 1315 1069 2069 15 58 28 117 30
133 2 15 7 31 9 36 3 5 8 26 12 47 3 22 10 58 15 82 5 23 12 59 15 80 3 20 9
62 14 92 11 63 17 110 26 195 3 33 7 71 10 85 24 152 24 771 -1 965 -2 17 -6
57 -10 90 -3 33 -7 71 -10 84 -2 13 -7 49 -10 79 -3 31 -7 63 -9 71 -3 9 -7
32 -10 51 -121 778 -464 1581 -957 2235 -355 472 -779 872 -1266 1194 -293
194 -511 309 -908 481 -152 66 -539 189 -740 235 -160 37 -555 104 -605 103
-8 0 -40 3 -70 6 -30 4 -77 9 -105 12 -55 5 -652 13 -657 9z"/>
</g>
</svg>
