<svg xmlns="http://www.w3.org/2000/svg" width="25.914" height="20.062" viewBox="0 0 25.914 20.062">
  <g id="receive-transaction" transform="translate(0 7.197) rotate(-45)">
    <g id="Layer_1" data-name="Layer 1" transform="translate(0 0)">
      <path id="Path_31967" data-name="Path 31967" d="M177.35,2.71a2.627,2.627,0,0,1,.7.323,1.68,1.68,0,0,1,.621.891q.985,3.432,1.965,6.866a.492.492,0,0,1,.009.071c.022.039,0,.069-.021.1a1.318,1.318,0,0,1-.123.13l-9.661,9.66a.514.514,0,0,1-.191.157c-.156-.023-.132-.165-.172-.264v-.323c.235-1,.567-1.967.857-2.948.483-1.634.977-3.263,1.467-4.9q.667-2.217,1.331-4.434c.378-1.261.76-2.522,1.133-3.785.033-.109.067-.216.1-.323a1.611,1.611,0,0,1,1.406-1.218Z" transform="translate(-170.479 -2.71)" fill="#e8e8e8"/>
      <path id="Path_31968" data-name="Path 31968" d="M0,10.024c.052-.056.1-.115.157-.17Q5,5.012,9.837.173c.054-.054.1-.115.153-.173,2.264.647,4.528,1.3,6.794,1.939A1.736,1.736,0,0,1,18.11,3.244a.217.217,0,0,0,.036.057v.608a1.706,1.706,0,0,1-1.331,1.4Q12.25,6.68,7.682,8.047c-2.088.627-4.176,1.259-6.269,1.88a6.9,6.9,0,0,1-.946.245H.217C.149,10.115.006,10.17,0,10.024Z" transform="translate(0.178 8.151)" fill="#f3f3f3"/>
    </g>
  </g>
</svg>
