<svg id="send-transaction" xmlns="http://www.w3.org/2000/svg" width="18.258" height="18.258" viewBox="0 0 18.258 18.258">
  <g id="Layer_1" data-name="Layer 1" transform="translate(0)">
    <path id="Path_31967" data-name="Path 31967" d="M173.774,20.839a2.617,2.617,0,0,1-.7-.322,1.674,1.674,0,0,1-.619-.888q-.981-3.42-1.958-6.841a.491.491,0,0,1-.009-.07c-.022-.039,0-.069.021-.1a1.314,1.314,0,0,1,.122-.129l9.627-9.626a.512.512,0,0,1,.19-.157c.156.023.131.164.172.263V3.3c-.234.994-.565,1.96-.854,2.938-.481,1.628-.974,3.251-1.462,4.879q-.664,2.21-1.326,4.418c-.377,1.257-.757,2.513-1.129,3.771-.032.109-.067.216-.1.322a1.606,1.606,0,0,1-1.4,1.214Z" transform="translate(-162.363 -2.581)" fill="#e8e8e8"/>
    <path id="Path_31968" data-name="Path 31968" d="M18.081.148c-.052.056-.1.115-.156.169Q13.1,5.142,8.279,9.964c-.054.054-.1.115-.152.172C5.871,9.491,3.615,8.841,1.357,8.2A1.73,1.73,0,0,1,.036,6.9.216.216,0,0,0,0,6.847V6.241A1.7,1.7,0,0,1,1.326,4.848q4.549-1.368,9.1-2.73C12.507,1.493,14.588.863,16.673.244A6.87,6.87,0,0,1,17.615,0h.249C17.932.057,18.075,0,18.081.148Z" transform="translate(0)" fill="#f3f3f3"/>
  </g>
</svg>
