<svg id="bnb" xmlns="http://www.w3.org/2000/svg" xmlns:xlink="http://www.w3.org/1999/xlink" width="46" height="46" viewBox="0 0 46 46">
  <defs>
    <clipPath id="clip-path">
      <rect id="simple-icons:binance_Background_Mask_" data-name="simple-icons:binance (Background/Mask)" width="26" height="26" transform="translate(-0.31 -0.311)" fill="none"/>
    </clipPath>
  </defs>
  <rect id="Rectangle_20" data-name="Rectangle 20" width="46" height="46" rx="23" fill="#012251"/>
  <g id="simple-icons:binance" transform="translate(10.31 10.31)">
    <rect id="simple-icons:binance_Background_Mask_2" data-name="simple-icons:binance (Background/Mask)" width="26" height="26" transform="translate(-0.31 -0.311)" fill="none"/>
    <g id="simple-icons:binance-2" data-name="simple-icons:binance" clip-path="url(#clip-path)">
      <path id="Vector" d="M4.9,17.583l2.873-2.874,4.9,4.928,4.9-4.928,2.873,2.872-7.775,7.775Zm14.733-4.9,2.848-2.872,2.9,2.872-2.872,2.872Zm-9.83,0,2.872-2.871h0l2.872,2.847-2.873,2.874Zm-9.8,0L2.872,9.807l2.849,2.872L2.874,15.526Zm4.9-4.9L12.678,0h0l7.775,7.751-2.873,2.871-4.9-4.9-4.9,4.928Z" transform="translate(0 0.008)" fill="#fff"/>
    </g>
  </g>
</svg>
